<?xml version="1.0" encoding="utf-8"?>
<!-- Generator: Adobe Illustrator 27.5.0, SVG Export Plug-In . SVG Version: 6.00 Build 0)  -->
<svg version="1.1" id="Capa_1" xmlns="http://www.w3.org/2000/svg" xmlns:xlink="http://www.w3.org/1999/xlink" x="0px" y="0px"
	 viewBox="0 0 603 323" style="enable-background:new 0 0 603 323;" xml:space="preserve">
<style type="text/css">
	.st0{fill:#007EAB;}
	.st1{fill:#FFFFFF;}
	.st2{fill:#007EAB;stroke:#007EAB;stroke-width:0.25;stroke-miterlimit:10;}
</style>
<g>
	<path class="st0" d="M274.5,140c0,39-0.1,76.6,0.1,114.3c0.1,7.5-2.8,9.2-9.8,9.1c-13.5-0.2-27.3-0.6-40.5,1.5
		c-9.3,1.5-18.2,6.4-26.8,10.7c-4,2-6.2,2.7-10.4,0c-14.7-9.5-30.7-15.2-48.7-14.2c-9.5,0.6-19,0.1-28.8,0.1c0-18.9-0.1-36.4,0-53.9
		c0.1-12.3,0.6-24.6,1-37c0.2-6.1-2.1-10.2-8.5-10.9c-6.6-0.7-9.7,3.3-10.3,9.2c-0.5,5-0.4,10-0.5,15.1c-0.4,26.9-0.7,53.8-1.1,80.7
		c-0.2,11.5,1.7,13.5,13.4,13.8c11.8,0.3,23.6,0.4,35.4,0.8c16.4,0.5,31.2,5.5,43.9,16.3c8.1,6.9,10.5,6.7,18.4-0.1
		c10.7-9.2,23.3-14,37.3-14.5c14.3-0.5,28.7-0.1,43-0.2c8.8,0,11.8-2.8,11.9-11.6c0.6-45.3,1.2-90.6,1.8-135.8
		c0.1-8.8-3.6-13.4-12.4-13.4c-18.6,0-37.3-0.4-55.6,1.8c-9.7,1.1-18.6,7.5-28.1,10.9c-3,1.1-7.4,1.5-9.9,0.1
		c-16.5-10.1-34.1-15.2-53.4-14.5c-7.6,0.3-12.7,4.1-12.9,9.8c-0.2,5.8,4.5,9.9,12.5,9.9c15.2,0.1,30.9,0.2,42.6,11.1
		c11.8,11,20.9,9.7,32.5-0.3c5.6-4.9,14.4-7.8,22-8.5C246.6,139.1,260.9,140,274.5,140z"/>
	<path class="st0" d="M80.3,13.7c9.7,0,21-0.6,30.6,0.4c14.5,1.5,25,9.5,31.4,22.7c6.3,13,5.4,26.9,3.8,40.4
		c-1.7,14.1-8.6,25.9-22.5,32.1c-4.7,2.1-12.2,3-13.5,6.3c-1.6,4.1,2.3,10.1,3.4,15.4c1.1,5.6,1.1,12.6-8.5,12.1
		c-3.6-0.2-8.9-2.3-11.9-4.4c-4.6-3.3-8.9-7.2-13.6-10.5c-10.2-7.1-18.8-15.3-33.4-15.8c-14.5-0.5-26.3-11-29.8-25.7
		c-2.7-11.5-1.9-23.8-2-35.8C14.1,36.3,29,17.5,43.4,15.5C55.6,13.8,80.3,13.7,80.3,13.7z M100.3,95c10.2,0.3,18.8-1.9,23.8-11.7
		c1-1.9,1.9-4.1,2-6.2c0.4-7.8,0.6-15.6,0.7-23.3c0.1-11.2-8.4-19.9-19.6-20.1c-17-0.2-34-0.4-51.1-0.5C43.1,33.1,36.2,38.9,35,51.9
		c-0.7,7.9-0.6,15.9-0.9,23.8c-0.3,10,6.3,17.5,16.8,18.3c12.3,0.9,23.4,2.9,32.6,13.9c0.2,0.3,0.6,0.2,0.7-0.2
		C86.4,96.6,89.1,94.7,100.3,95z"/>
	<path class="st0" d="M124.4,164.7c-5,5.1-0.7,13,6.9,13.4c13,0.6,25.2,3.9,36.8,9.7c6.3,3.1,11,0.1,13.6-5.1c2.8-5.5-1-9.6-5.6-12
		c-11.2-5.8-22.8-10.8-35.9-10.2C133.2,160.3,127.9,161.1,124.4,164.7z"/>
	<path class="st0" d="M136.2,190c-8.1-0.1-14.4,3.8-14.4,8.6c-0.1,7,5,9.3,10.7,10.4c7.5,1.5,15.2,2.4,22.7,4
		c3.5,0.8,6.8,2.7,10.2,4.3c6.4,3.1,12.3,2,15-2.8c3-5.5,1.2-9.5-5.7-13.7C162.3,193.4,148.6,191.4,136.2,190z"/>
	<path class="st0" d="M211.6,201.4c-6.9,2.7-9.1,8.9-6.3,13.6c3.6,6,9.6,5.6,14.6,3.2c9.7-4.7,19.5-7.4,30.2-7.1
		c2.2,0.1,4.4-0.7,6.6-1.4c4.6-1.4,6.7-4.2,6.7-9.4c0-5.8-3.8-7.1-7.8-8.5c-2-0.7-4.5-0.3-6.7-0.4
		C248.6,190.7,223.5,196.8,211.6,201.4z"/>
	<path class="st0" d="M134.4,221c-6.5-0.7-11.8,0.9-12.9,8.2c-0.8,5.5,4.3,8.6,12.2,10.2c11.6,2.4,23.1,5.4,34.2,9.3
		c6.2,2.1,9.7,0.1,12.5-4.5c3-4.9,0.2-8.8-3.7-11.4C163.9,224.4,149.4,221.5,134.4,221z"/>
	<path class="st0" d="M213.5,169.9c-4.5,1.6-9.1,4.4-8.8,10.8c0.3,6.5,7,10,13.2,8.1c11.3-3.5,22.7-6.7,34.3-8.7
		c8.1-1.4,11.4-3,11.3-9.6c-0.1-6.6-3.2-8.9-11.8-8.8c-1.8,0-3.5,0.1-5.3,0.2C246.3,161.2,224.1,166.1,213.5,169.9z"/>
	<path class="st0" d="M204,239.6c0.3,8,6.3,12.5,11.6,10.1c12.5-5.6,25.2-8.9,39-8.9c5.8,0,8.4-4.9,8.1-10.6
		c-0.2-5.3-3.9-7.3-8.6-7.6c-16.1-0.9-31.4,2.2-45.3,10.5C206.3,234.8,204.2,237.3,204,239.6z"/>
	<path class="st1" d="M48.7,96.5c-11.5-0.9-18.9-9.1-18.5-20.1c0.3-8.7,0.1-17.5,1-26.2c1.3-14.3,8.9-20.7,23.3-20.6
		c18.8,0.1,37.5,0.3,56.3,0.6c12.3,0.2,21.7,9.8,21.6,22.1c-0.1,8.6-0.3,17.2-0.7,25.7c-0.1,2.3-1.1,4.7-2.2,6.8
		c-5.5,10.8-15,13.3-26.2,12.9c-12.7-0.4-15.5,1.9-18,14.9C74.9,99.8,62.4,97.5,48.7,96.5z"/>
	<g>
		<path class="st2" d="M66.5,59.9c0,1-0.2,1.9-0.7,2.8s-1,1.7-1.8,2.5c-0.8,0.7-1.7,1.3-2.7,1.7s-2.1,0.6-3.3,0.6
			c-1.3,0-2.5-0.2-3.5-0.6s-1.9-1-2.5-1.6s-0.9-1.3-0.9-2c0-0.6,0.1-1,0.4-1.3s0.5-0.5,0.9-0.6s0.7-0.2,1-0.2c0.3,0,0.5,0,0.7,0.1
			s0.4,0.2,0.6,0.2l1,3.4c0.3,0.1,0.7,0.2,1.3,0.4c0.6,0.2,1,0.3,1.4,0.3c0.6,0,1.1-0.2,1.5-0.5s0.9-0.8,1.2-1.4s0.6-1.2,0.8-1.9
			s0.3-1.3,0.3-1.9c0-1.1-0.2-2.1-0.7-2.8S60,56,58.9,56c-0.5,0-0.9,0.1-1.2,0.2l-0.8-0.8l4.6-6.1h-6.2c-0.1,0-0.3,0.1-0.4,0.2
			s-0.2,0.3-0.2,0.4l-0.2,2.7h-2.1V46h13.4v1.4l-5.5,7.2c1.2,0,2.3,0.3,3.3,0.8s1.7,1.2,2.2,2S66.5,59,66.5,59.9z"/>
	</g>
	<g>
		<path class="st2" d="M87,74c0,1-0.2,1.9-0.5,2.6s-0.8,1.3-1.3,1.8s-1,0.8-1.6,1.1c-0.5,0.3-1.1,0.5-1.8,0.7v6.3
			c0,0.4,0.2,0.6,0.7,0.7l1.9,0.2v1.6h-9.2v-1.6l1.9-0.2c0.4,0,0.7-0.2,0.7-0.7v-6.7c0.7-0.3,1.3-0.5,1.8-0.8c0.5-0.3,1-0.7,1.5-1.1
			s1-1,1.3-1.7s0.5-1.4,0.5-2.3c0-0.6-0.1-1.1-0.3-1.7c-0.2-0.6-0.5-1.1-0.9-1.5c-0.4-0.4-0.9-0.6-1.5-0.6c-0.3,0-0.5,0-0.7,0.1
			s-0.4,0.1-0.6,0.3l-1,2.6c-0.5,0.2-1,0.3-1.3,0.3c-0.3,0-0.7-0.1-1.1-0.3s-0.6-0.6-0.6-1.3c0-0.9,0.3-1.5,0.8-2s1.2-0.8,2.1-1
			c0.8-0.2,1.6-0.3,2.5-0.3c1.3,0,2.5,0.2,3.5,0.7s1.8,1.1,2.4,2C86.7,71.8,87,72.8,87,74z"/>
	</g>
	<g>
		<path class="st2" d="M112.1,47.9c0,0.6-0.2,1.1-0.6,1.5s-0.8,0.7-1.2,0.8l-2.6-2.8c-0.3,0.1-0.5,0.3-0.6,0.5s-0.2,0.7-0.2,1.3
			c0,0.3,0,0.8,0.1,1.7s0.2,1.8,0.3,3s0.3,2.4,0.5,3.7s0.3,2.6,0.5,3.9s0.3,2.5,0.5,3.6s0.3,2,0.3,2.7s0.1,1.2,0.1,1.4
			c0,1-0.2,1.9-0.7,2.7s-1.1,1.4-2,1.9s-1.9,0.7-3.1,0.7c-0.7,0-1.2-0.1-1.8-0.4s-0.9-0.6-1.2-1c-0.3-0.4-0.4-0.8-0.4-1.2
			c0-0.6,0.2-1.1,0.6-1.5s0.8-0.7,1.2-0.8l2.6,2.8c0.3-0.1,0.5-0.3,0.6-0.6c0.2-0.2,0.2-0.7,0.2-1.3c0-0.3,0-0.9-0.1-1.7
			s-0.2-1.8-0.4-3s-0.3-2.4-0.5-3.7c-0.2-1.3-0.3-2.6-0.5-3.9s-0.3-2.5-0.5-3.6s-0.3-2-0.4-2.7s-0.1-1.2-0.1-1.4
			c0-1.5,0.5-2.8,1.6-3.8s2.5-1.5,4.3-1.5c0.7,0,1.3,0.1,1.8,0.4c0.5,0.3,0.9,0.6,1.2,1C112,47.1,112.1,47.5,112.1,47.9z"/>
	</g>
</g>
<g>
	<path class="st0" d="M403.2,139.4l-6.1,0.6c-0.7,0-1.4,0.3-1.9,0.8c-0.5,0.5-0.8,1.1-0.8,1.9v26.8c-4.8,1.9-9.3,3.3-13.5,4.2
		c-4.2,0.9-9,1.4-14.3,1.4c-8,0-15.2-1.8-21.5-5.3s-11.3-8.4-15-14.8c-3.7-6.3-5.5-13.8-5.5-22.3c0-8.7,1.9-16.1,5.6-22.4
		c3.7-6.3,8.8-11.1,15.3-14.5c6.5-3.4,13.8-5.1,22.1-5.1c5.2,0,9.9,0.4,13.9,1.2c4.1,0.8,8.4,2,13.1,3.5v20.7h-9.4l-2.4-12.9
		c-0.1-0.4-0.3-0.9-0.8-1.5c-0.4-0.5-0.9-0.9-1.4-1.1c-1.8-0.7-3.6-1.2-5.2-1.6c-1.6-0.3-2.8-0.5-3.4-0.5c-5.2,0-9.7,0.9-13.4,2.8
		c-3.7,1.9-6.6,4.4-8.9,7.6c-2.3,3.2-3.9,6.8-5,10.8c-1.1,4-1.6,8.1-1.6,12.4c0,10.3,2.5,18.5,7.6,24.6c5.1,6.1,12.3,9.2,21.7,9.2
		c0.5,0,1.2,0,2,0.1c0.8,0.1,1.9,0,3.4-0.1v-23.4c0-0.8-0.3-1.4-0.8-1.9c-0.5-0.5-1.2-0.7-1.9-0.7l-8-0.6v-6.2h36.2V139.4z"/>
	<path class="st0" d="M477.6,173.1h-24.1v-6.6c-2.3,1.6-4.3,3-6.2,4c-1.9,1.1-3.9,2-6.2,2.8c-2.2,0.8-4.5,1.2-6.7,1.2
		c-6.8,0-11.5-1.7-14-5.2c-2.5-3.5-3.8-8.3-3.8-14.4v-31H409v-4.9l17.6-6h6.3v37.2c0,2,0.2,4,0.6,6c0.4,2.1,1.4,3.8,3,5.2
		c1.5,1.4,4,2.1,7.4,2.1c2.5,0,5.7-0.7,9.6-2.1V124h-7.6v-4.9l17.5-6h6.1v51.2c0,0.7,0.3,1.4,0.8,1.9c0.6,0.5,1.2,0.8,2,0.9l5.3,0.4
		V173.1z"/>
	<path class="st0" d="M516.9,173.1h-32.6v-5.6l5.5-0.4c0.7-0.1,1.3-0.4,1.8-0.9s0.8-1.2,0.8-1.9V124h-7.7v-4.9l17.5-6h6.1v51.2
		c0,0.7,0.3,1.4,0.8,1.9c0.6,0.5,1.2,0.8,1.9,0.9l5.8,0.4V173.1z M519.9,91.4c0,0.8-0.3,1.7-0.9,2.8c-0.6,1.1-1.3,1.8-2.2,2.3
		L497.3,107h-8.4l16.4-18.2c1.4-1.5,2.6-2.5,3.6-3c1-0.5,2.4-0.8,4-0.8c2.6,0,4.4,0.7,5.4,2.1C519.4,88.5,519.9,89.9,519.9,91.4z"/>
	<path class="st0" d="M584.7,173.1h-22.3l-1.6-6c-1.5,1.1-3.4,2.2-5.7,3.3c-2.3,1.2-4.7,2.1-7.4,2.9c-2.6,0.8-5.2,1.2-7.8,1.2
		c-4.3,0-8-1.4-11.1-4.2c-3.1-2.8-4.6-6.6-4.6-11.3c0-2.7,0.4-5.1,1.2-7.2c0.8-2.1,2.4-4,4.8-5.8c2.4-1.8,6.1-3.5,11-5.2
		c4.9-1.7,11.5-3.4,19.7-5.2c0-0.7,0-1.5,0-2.4c0-0.9,0-1.7,0.1-2.3c0-1.5-0.2-3.1-0.8-4.9c-0.5-1.7-1.6-3.2-3.3-4.4
		c-1.6-1.2-4-1.8-7.2-1.8c-1.2,0-2.3,0.1-3.2,0.2c-0.9,0.1-1.6,0.2-2,0.3v11.4h-12.4c-1.2,0.2-2.4-0.1-3.6-0.7
		c-1.2-0.6-1.8-1.8-1.8-3.6c0-2.2,0.8-4.2,2.3-6c1.6-1.8,3.6-3.3,6.2-4.5c2.6-1.2,5.5-2.2,8.6-2.8s6.3-1,9.5-1
		c4.6,0,8.7,0.5,12.1,1.5c3.5,1,6.2,3,8.1,5.9c2,2.9,2.9,7.3,2.9,13v30.8c0,0.7,0.3,1.4,0.8,1.9c0.5,0.5,1.1,0.8,1.9,0.9l5.3,0.4
		V173.1z M560.8,162v-19.8c-5.2,1-9.2,2.1-12,3.3c-2.8,1.2-4.8,2.6-5.9,4.2c-1.1,1.6-1.7,3.6-1.7,6.1c0,2.5,0.8,4.6,2.4,6.3
		c1.6,1.7,3.7,2.6,6.2,2.6c1.9,0,3.9-0.3,6-0.9C557.9,163.1,559.5,162.5,560.8,162z"/>
	<path class="st0" d="M345.4,205.3c0,1.9-0.3,3.4-1,4.7c-0.7,1.3-1.6,2.3-2.7,3c-1.1,0.7-2.3,1.3-3.7,1.6c-1.4,0.3-2.8,0.5-4.2,0.5
		c-0.4,0-0.9,0-1.3,0c-0.5,0-1,0-1.6-0.1v7.5c0,0.3,0.1,0.5,0.3,0.7c0.2,0.2,0.4,0.3,0.7,0.3l2.8,0.2v2.2h-13.5v-2.2l2.4-0.2
		c0.3,0,0.5-0.1,0.7-0.3c0.2-0.2,0.3-0.4,0.3-0.7v-22.6c0-0.3-0.1-0.5-0.3-0.7c-0.2-0.2-0.4-0.3-0.7-0.3l-2.6-0.2v-2.2h12.3
		c1.5,0,2.9,0.1,4.4,0.3s2.7,0.6,3.8,1.2c1.1,0.6,2.1,1.5,2.7,2.7C345,201.8,345.4,203.4,345.4,205.3z M338.8,205.5
		c0-2-0.5-3.6-1.5-4.8c-1-1.1-2.3-1.7-3.9-1.7c-0.1,0-0.3,0-0.7,0s-1,0-1.7,0v13.3c0.3,0,0.6,0,0.7,0c0.1,0,0.3,0,0.5,0
		c2,0,3.7-0.6,4.9-1.6C338.2,209.8,338.8,208,338.8,205.5z"/>
	<path class="st0" d="M365.6,211.4h-3c-0.2-0.3-0.5-0.7-0.9-1.1c-0.4-0.4-1.1-0.7-1.9-0.7c-0.6,0-1.2,0.1-1.7,0.3
		c-0.5,0.2-0.9,0.4-1.2,0.5v12.3c0,0.3,0.1,0.5,0.3,0.7c0.2,0.2,0.4,0.3,0.7,0.3l2.8,0.1v2.1h-12.6v-2.1l1.9-0.1
		c0.3,0,0.5-0.1,0.7-0.3c0.2-0.2,0.3-0.4,0.3-0.7v-14.8h-3.2v-1.8l6.8-2.2h2.3v4.7c0.3-0.3,0.6-0.8,1.1-1.3c0.5-0.5,1-1,1.5-1.6
		s1.1-0.9,1.7-1.3c0.6-0.3,1.1-0.5,1.6-0.5c0.5,0,1,0.1,1.6,0.2c0.5,0.2,0.9,0.3,1.2,0.5V211.4z"/>
	<path class="st0" d="M389.6,225.9h-8.2l-0.6-2.2c-0.5,0.4-1.2,0.8-2.1,1.2c-0.8,0.4-1.7,0.8-2.7,1.1c-1,0.3-1.9,0.4-2.9,0.4
		c-1.6,0-2.9-0.5-4.1-1.5c-1.1-1-1.7-2.4-1.7-4.1c0-1,0.1-1.9,0.4-2.6c0.3-0.8,0.9-1.5,1.8-2.1c0.9-0.7,2.2-1.3,4-1.9
		c1.8-0.6,4.2-1.2,7.2-1.9c0-0.2,0-0.5,0-0.9c0-0.3,0-0.6,0-0.8c0-0.6-0.1-1.2-0.3-1.8c-0.2-0.6-0.6-1.2-1.2-1.6
		c-0.6-0.5-1.5-0.7-2.7-0.7c-0.4,0-0.8,0-1.2,0.1c-0.3,0-0.6,0.1-0.7,0.1v4.2h-4.5c-0.4,0.1-0.9,0-1.3-0.2c-0.4-0.2-0.7-0.7-0.7-1.3
		c0-0.8,0.3-1.5,0.9-2.2c0.6-0.6,1.3-1.2,2.3-1.7c1-0.5,2-0.8,3.2-1s2.3-0.4,3.5-0.4c1.7,0,3.2,0.2,4.4,0.5c1.3,0.4,2.3,1.1,3,2.1
		c0.7,1.1,1.1,2.7,1.1,4.8v11.3c0,0.3,0.1,0.5,0.3,0.7c0.2,0.2,0.4,0.3,0.7,0.3l1.9,0.1V225.9z M384.9,195.9c0,0.3-0.1,0.6-0.3,1
		c-0.2,0.4-0.5,0.7-0.8,0.8l-7.1,3.9h-3.1l6-6.7c0.5-0.5,0.9-0.9,1.3-1.1c0.4-0.2,0.9-0.3,1.5-0.3c0.9,0,1.6,0.3,2,0.8
		C384.7,194.9,384.9,195.4,384.9,195.9z M380.8,221.8v-7.3c-1.9,0.4-3.4,0.8-4.4,1.2c-1,0.4-1.8,0.9-2.2,1.5
		c-0.4,0.6-0.6,1.3-0.6,2.2c0,0.9,0.3,1.7,0.9,2.3c0.6,0.6,1.3,1,2.3,1c0.7,0,1.4-0.1,2.2-0.3C379.8,222.2,380.4,222,380.8,221.8z"
		/>
	<path class="st0" d="M411.1,224c-0.5,0.3-1.2,0.6-2,1c-0.8,0.4-1.8,0.7-3,1c-1.1,0.3-2.4,0.4-3.7,0.4c-2.3,0-4.2-0.5-5.8-1.5
		c-1.6-1-2.8-2.3-3.6-4c-0.8-1.6-1.2-3.4-1.2-5.3c0-2.3,0.5-4.4,1.5-6.1c1-1.8,2.4-3.1,4.1-4.1c1.7-1,3.6-1.5,5.7-1.5
		c2.3,0,4.1,0.5,5.5,1.4c1.4,0.9,2.1,2.1,2.1,3.5c0,1-0.3,1.8-1,2.4c-0.7,0.6-1.5,0.9-2.5,0.9c-0.6,0-1.2-0.1-1.5-0.3
		c-0.4-0.2-0.7-0.4-1-0.6v-4.9c-0.2,0-0.3,0-0.4,0c-0.1,0-0.3,0-0.4,0c-0.9,0-1.8,0.3-2.6,0.9c-0.9,0.6-1.6,1.5-2.1,2.7
		c-0.6,1.2-0.8,2.7-0.8,4.5c0,2.6,0.6,4.6,1.8,6.1c1.2,1.5,2.8,2.3,4.9,2.3c0.9,0,1.8-0.2,2.7-0.5c0.9-0.3,1.6-0.6,2.3-1
		c0.6-0.4,1.1-0.6,1.2-0.7V224z"/>
	<path class="st0" d="M428.8,224.9c-0.7,0.3-1.8,0.6-3.1,1c-1.3,0.3-2.6,0.5-3.9,0.5c-1.9,0-3.3-0.4-4.1-1.3
		c-0.8-0.9-1.2-2.2-1.2-4.1v-13.8h-2.9v-1.8l3.4-2l2.4-4.7h3.1v5.7h6.1v2.8h-6.1v12c0,1.4,0.3,2.4,0.9,3c0.6,0.6,1.5,0.9,2.7,0.9
		c0.5,0,1,0,1.6-0.1c0.5-0.1,1-0.1,1.3-0.2V224.9z"/>
	<path class="st0" d="M442.3,225.9h-12v-2.1l2-0.1c0.3,0,0.5-0.1,0.7-0.3s0.3-0.4,0.3-0.7v-14.8h-2.8v-1.8l6.4-2.2h2.2v18.8
		c0,0.3,0.1,0.5,0.3,0.7c0.2,0.2,0.4,0.3,0.7,0.3l2.1,0.1V225.9z M439.8,196.7c0,0.9-0.3,1.8-1,2.4c-0.7,0.7-1.5,1-2.4,1
		s-1.7-0.3-2.4-1c-0.7-0.7-1-1.5-1-2.4s0.3-1.7,1-2.4c0.7-0.7,1.5-1,2.4-1s1.8,0.3,2.4,1C439.5,195,439.8,195.8,439.8,196.7z"/>
	<path class="st0" d="M464.3,224c-0.5,0.3-1.2,0.6-2,1c-0.8,0.4-1.8,0.7-3,1c-1.1,0.3-2.4,0.4-3.7,0.4c-2.3,0-4.2-0.5-5.8-1.5
		c-1.6-1-2.8-2.3-3.6-4c-0.8-1.6-1.2-3.4-1.2-5.3c0-2.3,0.5-4.4,1.5-6.1c1-1.8,2.4-3.1,4.1-4.1c1.7-1,3.6-1.5,5.7-1.5
		c2.3,0,4.1,0.5,5.5,1.4c1.4,0.9,2.1,2.1,2.1,3.5c0,1-0.3,1.8-1,2.4c-0.7,0.6-1.5,0.9-2.5,0.9c-0.6,0-1.2-0.1-1.5-0.3
		c-0.4-0.2-0.7-0.4-1-0.6v-4.9c-0.2,0-0.3,0-0.4,0c-0.1,0-0.3,0-0.4,0c-0.9,0-1.8,0.3-2.6,0.9c-0.9,0.6-1.6,1.5-2.1,2.7
		c-0.6,1.2-0.8,2.7-0.8,4.5c0,2.6,0.6,4.6,1.8,6.1c1.2,1.5,2.8,2.3,4.9,2.3c0.9,0,1.8-0.2,2.7-0.5c0.9-0.3,1.6-0.6,2.3-1
		c0.6-0.4,1.1-0.6,1.2-0.7V224z"/>
	<path class="st0" d="M489.3,225.9h-8.2l-0.6-2.2c-0.5,0.4-1.2,0.8-2.1,1.2c-0.8,0.4-1.7,0.8-2.7,1.1c-1,0.3-1.9,0.4-2.9,0.4
		c-1.6,0-2.9-0.5-4.1-1.5c-1.1-1-1.7-2.4-1.7-4.1c0-1,0.1-1.9,0.4-2.6c0.3-0.8,0.9-1.5,1.8-2.1c0.9-0.7,2.2-1.3,4-1.9
		c1.8-0.6,4.2-1.2,7.2-1.9c0-0.2,0-0.5,0-0.9c0-0.3,0-0.6,0-0.8c0-0.6-0.1-1.2-0.3-1.8c-0.2-0.6-0.6-1.2-1.2-1.6
		c-0.6-0.5-1.5-0.7-2.7-0.7c-0.4,0-0.8,0-1.2,0.1c-0.3,0-0.6,0.1-0.7,0.1v4.2H470c-0.4,0.1-0.9,0-1.3-0.2c-0.4-0.2-0.7-0.7-0.7-1.3
		c0-0.8,0.3-1.5,0.9-2.2c0.6-0.6,1.3-1.2,2.3-1.7c1-0.5,2-0.8,3.2-1s2.3-0.4,3.5-0.4c1.7,0,3.2,0.2,4.4,0.5c1.3,0.4,2.3,1.1,3,2.1
		c0.7,1.1,1.1,2.7,1.1,4.8v11.3c0,0.3,0.1,0.5,0.3,0.7c0.2,0.2,0.4,0.3,0.7,0.3l1.9,0.1V225.9z M480.5,221.8v-7.3
		c-1.9,0.4-3.4,0.8-4.4,1.2c-1,0.4-1.8,0.9-2.2,1.5c-0.4,0.6-0.6,1.3-0.6,2.2c0,0.9,0.3,1.7,0.9,2.3c0.6,0.6,1.3,1,2.3,1
		c0.7,0,1.4-0.1,2.2-0.3C479.4,222.2,480,222,480.5,221.8z"/>
	<path class="st0" d="M528.6,225.9h-8.7v-2.6c-0.6,0.4-1.2,0.9-2,1.3c-0.8,0.5-1.6,0.9-2.4,1.2c-0.8,0.3-1.7,0.5-2.6,0.5
		c-1.8,0-3.3-0.5-4.6-1.4c-1.3-0.9-2.3-2.2-3-3.8c-0.7-1.6-1-3.5-1-5.5c0-2.5,0.5-4.7,1.5-6.4c1-1.7,2.3-3.1,4.1-4
		c1.7-0.9,3.7-1.4,5.9-1.4c0.6,0,1.3,0.1,2.1,0.2c0.8,0.1,1.5,0.2,2,0.4v-7.1h-3.3v-1.8l6.9-2.2h2.3v29.3c0,0.3,0.1,0.5,0.3,0.7
		c0.2,0.2,0.4,0.3,0.7,0.3l1.8,0.1V225.9z M519.9,221.5v-14.2c-0.4-0.2-0.9-0.3-1.5-0.5c-0.6-0.2-1.2-0.3-1.6-0.3
		c-1.4,0-2.5,0.4-3.4,1.1c-0.9,0.7-1.6,1.7-2,2.9c-0.4,1.2-0.7,2.6-0.7,4.1c0,2.3,0.5,4.2,1.4,5.6c1,1.4,2.4,2.1,4.3,2.1
		c0.6,0,1.2-0.1,1.9-0.3C519,221.9,519.5,221.7,519.9,221.5z"/>
	<path class="st0" d="M551.6,223.8c-1.5,0.9-3,1.5-4.4,2c-1.4,0.4-3,0.6-4.9,0.6c-2.5,0-4.6-0.5-6.2-1.5c-1.7-1-2.9-2.3-3.7-4
		c-0.8-1.7-1.2-3.5-1.2-5.5c0-2.2,0.5-4.2,1.4-5.9c0.9-1.7,2.2-3.1,3.9-4.1c1.7-1,3.6-1.5,5.8-1.5c2.3,0,4.1,0.5,5.5,1.4
		c1.4,1,2.4,2.2,3,3.7c0.6,1.5,0.9,3.2,0.9,4.9v1.1h-14.4c0,2.4,0.6,4.3,1.8,5.7c1.2,1.4,2.9,2.1,5,2.1c1.5,0,2.8-0.2,3.9-0.6
		c1.2-0.4,2.4-1,3.7-1.8V223.8z M545.3,212.5v-1c0-1.4-0.3-2.6-0.8-3.6c-0.6-1-1.5-1.5-2.8-1.5c-1.1,0-1.9,0.3-2.6,0.9
		c-0.6,0.6-1.1,1.4-1.4,2.3c-0.3,0.9-0.4,1.9-0.4,2.8H545.3z"/>
	<path class="st0" d="M343.5,256.7h-3.2l-0.6-4c0-0.2-0.1-0.4-0.3-0.6c-0.1-0.2-0.3-0.2-0.5-0.2h-8v10.8h5.5c0.2,0,0.4-0.1,0.5-0.3
		c0.1-0.2,0.2-0.4,0.2-0.5l0.4-3h2.7v10.4h-2.7l-0.4-3c0-0.2-0.1-0.3-0.3-0.5c-0.2-0.2-0.3-0.3-0.5-0.3h-5.5v9.8
		c0,0.3,0.1,0.5,0.3,0.7c0.2,0.2,0.4,0.3,0.7,0.3l2.9,0.2v2.2h-13.5v-2.2l2.4-0.2c0.3,0,0.5-0.1,0.7-0.3c0.2-0.2,0.3-0.4,0.3-0.7
		v-22.6c0-0.3-0.1-0.5-0.3-0.7c-0.2-0.2-0.4-0.3-0.7-0.3l-2.5-0.2v-2.2h22.4V256.7z"/>
	<path class="st0" d="M369,268.1c0,2.2-0.5,4.1-1.4,5.8s-2.3,3-4,3.9c-1.7,0.9-3.8,1.4-6.3,1.4c-2.2,0-4.2-0.5-5.9-1.4
		c-1.7-0.9-3-2.2-4-3.9c-1-1.7-1.4-3.7-1.4-6c0-2.4,0.5-4.5,1.5-6.1s2.4-3,4.1-3.9c1.7-0.9,3.8-1.3,6-1.3c2.4,0,4.5,0.5,6.2,1.5
		c1.7,1,3,2.3,3.8,4S369,265.9,369,268.1z M362.4,268c0-0.9-0.1-1.9-0.2-2.9c-0.1-1-0.4-2-0.7-2.9c-0.4-0.9-0.9-1.6-1.5-2.2
		s-1.5-0.8-2.5-0.8c-1,0-1.8,0.3-2.4,0.8c-0.6,0.5-1.1,1.2-1.5,2.1c-0.4,0.9-0.6,1.8-0.7,2.8c-0.1,1-0.2,2-0.2,2.9s0.1,1.9,0.2,3
		s0.4,2,0.7,2.9s0.8,1.6,1.5,2.2s1.5,0.8,2.5,0.8c1,0,1.8-0.3,2.5-0.8s1.1-1.2,1.5-2.1c0.4-0.9,0.6-1.8,0.7-2.8
		C362.4,270,362.4,269,362.4,268z"/>
	<path class="st0" d="M396.3,278.7h-10.8v-2.1l1.6-0.1c0.3,0,0.5-0.1,0.7-0.3c0.2-0.2,0.3-0.4,0.3-0.7v-10.3c0-1.1-0.3-2.1-0.8-3
		c-0.5-0.9-1.5-1.4-2.8-1.4c-0.9,0-1.7,0.1-2.5,0.2s-1.4,0.3-1.7,0.4v14.2c0,0.3,0.1,0.5,0.3,0.7c0.2,0.2,0.4,0.3,0.7,0.3l1.3,0.1
		v2.1h-10.8v-2.1l1.6-0.1c0.3,0,0.5-0.1,0.7-0.3c0.2-0.2,0.3-0.4,0.3-0.7v-14.7h-3v-1.8l6.6-2.2h2.3v2.7c0.6-0.4,1.3-0.8,2.1-1.2
		c0.9-0.4,1.8-0.8,2.7-1.1c1-0.3,1.9-0.4,2.8-0.4c1.7,0,3,0.4,3.8,1.1s1.4,1.7,1.7,2.9c0.3,1.2,0.4,2.4,0.4,3.7v11.1
		c0,0.3,0.1,0.5,0.3,0.7c0.2,0.2,0.4,0.3,0.7,0.3l1.4,0.1V278.7z"/>
	<path class="st0" d="M419.8,276.6c-1.5,0.9-3,1.5-4.4,2c-1.4,0.4-3,0.6-4.9,0.6c-2.5,0-4.6-0.5-6.2-1.5c-1.7-1-2.9-2.3-3.7-4
		c-0.8-1.7-1.2-3.5-1.2-5.5c0-2.2,0.5-4.2,1.4-5.9c0.9-1.7,2.2-3.1,3.9-4.1c1.7-1,3.6-1.5,5.8-1.5c2.3,0,4.1,0.5,5.5,1.4
		s2.4,2.2,3,3.7c0.6,1.5,0.9,3.2,0.9,4.9v1.1h-14.4c0,2.4,0.6,4.3,1.8,5.7s2.9,2.1,5,2.1c1.5,0,2.8-0.2,3.9-0.6
		c1.2-0.4,2.4-1,3.7-1.8V276.6z M413.5,265.3v-1c0-1.4-0.3-2.6-0.8-3.6c-0.6-1-1.5-1.5-2.8-1.5c-1.1,0-1.9,0.3-2.6,0.9
		c-0.6,0.6-1.1,1.4-1.4,2.3c-0.3,0.9-0.4,1.9-0.4,2.8H413.5z M417.2,248.7c0,0.3-0.1,0.6-0.3,1c-0.2,0.4-0.5,0.7-0.8,0.8l-7.1,3.9
		h-3.1l6-6.7c0.5-0.5,0.9-0.9,1.3-1.1c0.4-0.2,0.9-0.3,1.5-0.3c0.9,0,1.6,0.3,2,0.8C417,247.7,417.2,248.2,417.2,248.7z"/>
	<path class="st0" d="M437.5,277.7c-0.7,0.3-1.8,0.6-3.1,1c-1.3,0.3-2.6,0.5-3.9,0.5c-1.9,0-3.3-0.4-4.1-1.3
		c-0.8-0.9-1.2-2.2-1.2-4.1v-13.8h-2.9v-1.8l3.4-2l2.4-4.7h3.1v5.7h6.1v2.8H431v12c0,1.4,0.3,2.4,0.9,3c0.6,0.6,1.5,0.9,2.7,0.9
		c0.5,0,1,0,1.6-0.1c0.5-0.1,1-0.1,1.3-0.2V277.7z"/>
	<path class="st0" d="M451,278.7h-12v-2.1l2-0.1c0.3,0,0.5-0.1,0.7-0.3s0.3-0.4,0.3-0.7v-14.8h-2.8v-1.8l6.4-2.2h2.2v18.8
		c0,0.3,0.1,0.5,0.3,0.7c0.2,0.2,0.4,0.3,0.7,0.3l2.1,0.1V278.7z M448.5,249.5c0,0.9-0.3,1.8-1,2.4c-0.7,0.7-1.5,1-2.4,1
		s-1.7-0.3-2.4-1c-0.7-0.7-1-1.5-1-2.4s0.3-1.7,1-2.4c0.7-0.7,1.5-1,2.4-1s1.8,0.3,2.4,1C448.2,247.8,448.5,248.6,448.5,249.5z"/>
	<path class="st0" d="M473,276.8c-0.5,0.3-1.2,0.6-2,1c-0.8,0.4-1.8,0.7-3,1c-1.1,0.3-2.4,0.4-3.7,0.4c-2.3,0-4.2-0.5-5.8-1.5
		c-1.6-1-2.8-2.3-3.6-4c-0.8-1.6-1.2-3.4-1.2-5.3c0-2.3,0.5-4.4,1.5-6.1c1-1.8,2.4-3.1,4.1-4.1s3.6-1.5,5.7-1.5
		c2.3,0,4.1,0.5,5.5,1.4c1.4,0.9,2.1,2.1,2.1,3.5c0,1-0.3,1.8-1,2.4c-0.7,0.6-1.5,0.9-2.5,0.9c-0.6,0-1.2-0.1-1.5-0.3
		c-0.4-0.2-0.7-0.4-1-0.6V259c-0.2,0-0.3,0-0.4,0c-0.1,0-0.3,0-0.4,0c-0.9,0-1.8,0.3-2.6,0.9s-1.6,1.5-2.1,2.7s-0.8,2.7-0.8,4.5
		c0,2.6,0.6,4.6,1.8,6.1c1.2,1.5,2.8,2.3,4.9,2.3c0.9,0,1.8-0.2,2.7-0.5c0.9-0.3,1.6-0.6,2.3-1s1.1-0.6,1.2-0.7V276.8z"/>
	<path class="st0" d="M498,278.7h-8.2l-0.6-2.2c-0.5,0.4-1.2,0.8-2.1,1.2s-1.7,0.8-2.7,1.1c-1,0.3-1.9,0.4-2.9,0.4
		c-1.6,0-2.9-0.5-4.1-1.5c-1.1-1-1.7-2.4-1.7-4.1c0-1,0.1-1.9,0.4-2.6c0.3-0.8,0.9-1.5,1.8-2.1c0.9-0.7,2.2-1.3,4-1.9
		c1.8-0.6,4.2-1.2,7.2-1.9c0-0.2,0-0.5,0-0.9c0-0.3,0-0.6,0-0.8c0-0.6-0.1-1.2-0.3-1.8c-0.2-0.6-0.6-1.2-1.2-1.6
		c-0.6-0.5-1.5-0.7-2.7-0.7c-0.4,0-0.8,0-1.2,0.1c-0.3,0-0.6,0.1-0.7,0.1v4.2h-4.5c-0.4,0.1-0.9,0-1.3-0.2c-0.4-0.2-0.7-0.7-0.7-1.3
		c0-0.8,0.3-1.5,0.9-2.2c0.6-0.6,1.3-1.2,2.3-1.7c1-0.5,2-0.8,3.2-1s2.3-0.4,3.5-0.4c1.7,0,3.2,0.2,4.4,0.5c1.3,0.4,2.3,1.1,3,2.1
		c0.7,1.1,1.1,2.7,1.1,4.8v11.3c0,0.3,0.1,0.5,0.3,0.7c0.2,0.2,0.4,0.3,0.7,0.3l1.9,0.1V278.7z M489.2,274.6v-7.3
		c-1.9,0.4-3.4,0.8-4.4,1.2c-1,0.4-1.8,0.9-2.2,1.5s-0.6,1.3-0.6,2.2c0,0.9,0.3,1.7,0.9,2.3c0.6,0.6,1.3,1,2.3,1
		c0.7,0,1.4-0.1,2.2-0.3S488.7,274.8,489.2,274.6z"/>
</g>
</svg>
